<?xml version="1.0" encoding="UTF-8"?>
<svg version="1.1" xmlns="http://www.w3.org/2000/svg" width="618" height="111">
<path d="M0 0 C203.94 0 407.88 0 618 0 C618 36.63 618 73.26 618 111 C414.06 111 210.12 111 0 111 C0 74.37 0 37.74 0 0 Z " fill="#FCFDFD" transform="translate(0,0)"/>
<path d="M0 0 C14.19 0 28.38 0 43 0 C43.09239607 6.59861956 43.17186442 13.19494742 43.21972656 19.79370117 C43.23970193 22.03303684 43.26689182 24.27232129 43.30175781 26.51147461 C43.56357463 43.77213359 43.33202149 59.73591515 30.96484375 73.21875 C21.02830451 82.61202166 9.66956023 86.61443792 -3.890625 86.3046875 C-15.93181822 85.12477158 -26.14836247 78.9451993 -33.875 69.75 C-40.00745801 61.18519686 -41.95030812 53.49691878 -43 43 C-28.81 43 -14.62 43 0 43 C0 28.81 0 14.62 0 0 Z " fill="#EA6904" transform="translate(63,17)"/>
<path d="M0 0 C32.5 0 32.5 0 39.0625 5.625 C41.54159784 9.9434285 41.95798511 13.13169387 41 18 C38.9949912 21.8026029 37.57313738 23.61790841 34 26 C34.94875 26.5775 35.8975 27.155 36.875 27.75 C39.93222902 29.9512049 40.70361954 30.66120881 42 34 C42.71951251 38.60153351 42.43337657 42.11657853 40.375 46.3125 C37.06444743 50.0586516 33.74466151 52.41844616 29 54 C26.78910055 54.08358958 24.57573922 54.10731764 22.36328125 54.09765625 C20.60818237 54.09390991 20.60818237 54.09390991 18.81762695 54.09008789 C16.58758911 54.07643188 16.58758911 54.07643188 14.3125 54.0625 C9.589375 54.041875 4.86625 54.02125 0 54 C0 36.18 0 18.36 0 0 Z " fill="#383838" transform="translate(411,26)"/>
<path d="M0 0 C14.19 0 28.38 0 43 0 C43 15.84 43 31.68 43 48 C42.67 48 42.34 48 42 48 C42 46.35 42 44.7 42 43 C28.14 43 14.28 43 0 43 C0 28.81 0 14.62 0 0 Z " fill="#068498" transform="translate(63,17)"/>
<path d="M0 0 C4.53067147 3.34406703 8.56742698 7.6236761 10.625 12.9375 C11.45582263 20.78201136 11.6826527 28.51039057 6.625 34.9375 C2.72864655 39.09005203 -1.52224736 41.59910451 -7.20703125 42.2734375 C-15.05653776 42.37631439 -20.37757825 41.68615516 -26.1953125 36.23046875 C-31.01117673 30.37303388 -31.1222028 24.06422711 -30.87890625 16.8046875 C-30.13744534 11.11440612 -28.70643978 7.26893978 -24.5625 3.125 C-17.24895422 -1.89410005 -8.46271986 -2.66418958 0 0 Z " fill="#373737" transform="translate(146.375,39.0625)"/>
<path d="M0 0 C13.86 0 27.72 0 42 0 C42 11.94229421 39.32946575 21.23214131 31 30 C21.44359887 39.15260954 13.09527772 41.69047223 0 43 C0 28.81 0 14.62 0 0 Z " fill="#380E0C" transform="translate(63,60)"/>
<path d="M0 0 C4.95 0 9.9 0 15 0 C17.64 8.91 20.28 17.82 23 27 C24.51664704 21.06396756 24.51664704 21.06396756 26.02075195 15.12475586 C27.30229436 10.18287066 28.85565311 5.63455617 31 1 C35.62 1 40.24 1 45 1 C44.31923824 4.40380878 43.67008113 7.19318813 42.51293945 10.38793945 C42.2120491 11.2226326 41.91115875 12.05732574 41.60115051 12.91731262 C41.27515366 13.80698227 40.9491568 14.69665192 40.61328125 15.61328125 C40.27378952 16.54166306 39.93429779 17.47004486 39.58451843 18.42655945 C38.86461983 20.38829162 38.14246506 22.34919712 37.41821289 24.30932617 C36.32182802 27.2871646 35.24385965 30.27126909 34.16601562 33.25585938 C33.46207281 35.16708521 32.7570295 37.07790613 32.05078125 38.98828125 C31.73490555 39.8718782 31.41902985 40.75547516 31.09358215 41.66584778 C28.55076227 48.44466552 25.23744799 54.33786587 19.58203125 58.98828125 C16.1660975 60.32674848 13.34353004 60.29000552 9.6875 60.1875 C8.43324219 60.16042969 7.17898438 60.13335937 5.88671875 60.10546875 C4.93410156 60.07066406 3.98148437 60.03585938 3 60 C3 56.37 3 52.74 3 49 C4.423125 48.7525 5.84625 48.505 7.3125 48.25 C10.30910493 47.57517401 11.7584996 47.20598563 14.125 45.1875 C16.1468681 40.13282975 12.7921982 34.69712195 10.83984375 29.9609375 C10.20506087 28.39584033 9.57029578 26.83073595 8.93554688 25.265625 C7.93397294 22.81158407 6.93065026 20.35826684 5.92651367 17.90527344 C4.95583699 15.5297137 3.99137164 13.15170145 3.02734375 10.7734375 C2.57269997 9.67181778 2.57269997 9.67181778 2.10887146 8.54794312 C0.89402495 5.5472018 0 3.26968998 0 0 Z " fill="#373737" transform="translate(356,38)"/>
<path d="M0 0 C1.20269531 -0.02578125 2.40539062 -0.0515625 3.64453125 -0.078125 C9.0816734 0.4254251 12.19407547 2.21141981 15.9375 6.125 C20.85664709 12.95714873 20.1875 16.20918976 20.1875 25.25 C11.6075 25.25 3.0275 25.25 -5.8125 25.25 C-5.1525 27.23 -4.4925 29.21 -3.8125 31.25 C3.23958329 33.60069443 10.13968747 31.81618056 17.1875 30.25 C17.1875 33.55 17.1875 36.85 17.1875 40.25 C12.12022295 42.73421775 7.9385593 43.77199705 2.25 43.6875 C1.5477832 43.68137695 0.84556641 43.67525391 0.12207031 43.66894531 C-6.82363735 43.4592514 -10.69661088 41.69218336 -16.125 37.4375 C-21.20232499 30.85578243 -21.74268243 24.36795575 -20.8125 16.25 C-19.09939126 9.56071825 -15.58894768 5.00268063 -9.8125 1.25 C-6.38258462 0.10669487 -3.6138584 0.04618349 0 0 Z " fill="#383838" transform="translate(325.8125,37.75)"/>
<path d="M0 0 C5.68247622 2.9427109 7.14499435 5.92498588 9.5 11.8125 C9.5 15.7725 9.5 19.7325 9.5 23.8125 C1.25 23.8125 -7 23.8125 -15.5 23.8125 C-14.02360997 28.87258639 -14.02360997 28.87258639 -10.5 30.8125 C-4.19756053 31.25477645 1.34779037 30.1796577 7.5 28.8125 C7.5 32.1125 7.5 35.4125 7.5 38.8125 C2.43323002 41.29646916 -1.74924182 42.33584507 -7.4375 42.25 C-8.14044189 42.24242676 -8.84338379 42.23485352 -9.56762695 42.22705078 C-16.0132063 42.02214433 -20.33771665 40.7950153 -25.01171875 36.38671875 C-30.43765897 30.36998848 -30.89085205 24.77624463 -30.75 16.9765625 C-30.31621534 11.4864754 -28.77122201 8.32422347 -25.1875 4.0625 C-17.79587913 -2.12583376 -9.16315265 -3.00290583 0 0 Z " fill="#373737" transform="translate(556.5,39.1875)"/>
<path d="M0 0 C5.11445643 2.33290995 6.8988194 4.88431061 9 10 C9.34057617 13.61865234 9.34057617 13.61865234 9.29296875 17.5859375 C9.28872391 18.28772125 9.28447906 18.989505 9.28010559 19.71255493 C9.26343599 21.9337756 9.22580872 24.15405788 9.1875 26.375 C9.17243788 27.88930973 9.15875216 29.40363381 9.14648438 30.91796875 C9.11613398 34.61262341 9.05739795 38.30527292 9 42 C4.05 42 -0.9 42 -6 42 C-6.06058594 40.00195312 -6.12117188 38.00390625 -6.18359375 35.9453125 C-6.24616611 34.01252169 -6.30877104 32.07973178 -6.37231445 30.14697266 C-6.43698251 28.14105193 -6.49683106 26.13497772 -6.55664062 24.12890625 C-6.59853516 22.87207031 -6.64042969 21.61523438 -6.68359375 20.3203125 C-6.72025146 19.15773926 -6.75690918 17.99516602 -6.79467773 16.79736328 C-6.81821659 14.0464499 -6.81821659 14.0464499 -8 12 C-9.98 12 -11.96 12 -14 12 C-17.78465993 17.78352858 -17.54827484 23.62059064 -17.6875 30.375 C-17.72166016 31.49261719 -17.75582031 32.61023438 -17.79101562 33.76171875 C-17.87315341 36.50746764 -17.93826185 39.25371669 -18 42 C-22.62 42 -27.24 42 -32 42 C-32 28.47 -32 14.94 -32 1 C-28.37 1 -24.74 1 -21 1 C-20.67 2.32 -20.34 3.64 -20 5 C-19.01 5 -18.02 5 -17 5 C-17 4.34 -17 3.68 -17 3 C-11.68028792 -0.9922243 -6.39151324 -0.77079225 0 0 Z " fill="#363636" transform="translate(287,38)"/>
<path d="M0 0 C4.62 0 9.24 0 14 0 C14.03738281 1.91425781 14.07476562 3.82851563 14.11328125 5.80078125 C14.17892726 8.30470755 14.24537506 10.80861291 14.3125 13.3125 C14.33505859 14.57513672 14.35761719 15.83777344 14.38085938 17.13867188 C14.41630859 18.34716797 14.45175781 19.55566406 14.48828125 20.80078125 C14.51446533 21.91622314 14.54064941 23.03166504 14.56762695 24.1809082 C14.77994555 27.0001273 14.77994555 27.0001273 16.37182617 28.89135742 C18.02492252 30.24844961 18.02492252 30.24844961 20.5625 29.9375 C23.0750738 29.24070282 23.0750738 29.24070282 24.12646484 27.30761719 C25.1910282 24.49536095 25.32206821 22.14577197 25.4140625 19.140625 C25.45273438 18.02558594 25.49140625 16.91054688 25.53125 15.76171875 C25.5621875 14.60285156 25.593125 13.44398437 25.625 12.25 C25.66367188 11.07566406 25.70234375 9.90132812 25.7421875 8.69140625 C25.83639492 5.79452796 25.91928383 2.89728559 26 0 C30.62 0 35.24 0 40 0 C40 13.53 40 27.06 40 41 C36.37 41 32.74 41 29 41 C28.505 38.525 28.505 38.525 28 36 C27.34 36 26.68 36 26 36 C25.6596875 36.928125 25.6596875 36.928125 25.3125 37.875 C23.49793406 40.81286867 22.3610164 41.1597459 19 42 C13.98237662 42.55286001 10.17648066 42.55615449 5.5625 40.375 C1.72696076 36.82010997 0.15132338 33.60782446 -0.34057617 28.38134766 C-0.32486572 27.07214355 -0.30915527 25.76293945 -0.29296875 24.4140625 C-0.28872391 23.71227875 -0.28447906 23.010495 -0.28010559 22.28744507 C-0.26343599 20.0662244 -0.22580872 17.84594212 -0.1875 15.625 C-0.17243788 14.11069027 -0.15875216 12.59636619 -0.14648438 11.08203125 C-0.11613398 7.38737659 -0.05739795 3.69472708 0 0 Z " fill="#343434" transform="translate(166,39)"/>
<path d="M0 0 C-0.55728913 3.34373475 -1.35173889 6.03312999 -3 9 C-3.99 8.855625 -4.98 8.71125 -6 8.5625 C-9.99409465 7.99074821 -13.99532937 7.49180166 -18 7 C-18 7.99 -18 8.98 -18 10 C-17.443125 10.15855469 -16.88625 10.31710938 -16.3125 10.48046875 C-3.20258467 14.48873678 -3.20258467 14.48873678 0.203125 19.91796875 C1.94349364 24.46510838 1.38910883 28.73539629 0 33.25 C-2.80511837 37.10703776 -5.44514492 38.8756599 -10 40 C-17.57973342 40.7577839 -24.88059299 40.8477628 -32 38 C-32 34.37 -32 30.74 -32 27 C-25.73 27.66 -19.46 28.32 -13 29 C-15.20763889 24.58472223 -15.47072081 24.45810875 -19.8125 23 C-24.59417551 21.23360905 -28.18962101 19.41383865 -31.3125 15.25 C-32.3731674 11.77872487 -32.67567031 8.54897536 -32 5 C-25.49234338 -6.82267497 -10.6456603 -4.40510081 0 0 Z " fill="#393939" transform="translate(608,41)"/>
<path d="M0 0 C2.97 0 5.94 0 9 0 C9 2.97 9 5.94 9 9 C12.3 9 15.6 9 19 9 C19 12.3 19 15.6 19 19 C15.7 19 12.4 19 9 19 C9.14017826 21.97953359 9.28686342 24.95849304 9.4375 27.9375 C9.47681641 28.78763672 9.51613281 29.63777344 9.55664062 30.51367188 C9.59853516 31.32255859 9.64042969 32.13144531 9.68359375 32.96484375 C9.72025146 33.7137085 9.75690918 34.46257324 9.79467773 35.23413086 C9.81771063 37.02461326 9.81771063 37.02461326 11 38 C13.98889359 38.45765667 16.98969648 38.70320951 20 39 C20 42.3 20 45.6 20 49 C16.06526665 50.83523011 12.8312028 51.32440184 8.5 51.375 C7.3965625 51.40335938 6.293125 51.43171875 5.15625 51.4609375 C1.29648021 50.89725825 -0.26841074 49.74120753 -3 47 C-5.06049741 43.73196359 -5.2360306 41.1868761 -5.1953125 37.359375 C-5.18886719 36.28945312 -5.18242187 35.21953125 -5.17578125 34.1171875 C-5.15902344 33.00601563 -5.14226562 31.89484375 -5.125 30.75 C-5.11597656 29.62335937 -5.10695313 28.49671875 -5.09765625 27.3359375 C-5.07410658 24.55707635 -5.0412168 21.7786461 -5 19 C-6.65 19 -8.3 19 -10 19 C-10.375 16.3125 -10.375 16.3125 -10 13 C-8.57146094 11.76626172 -7.13137525 10.53926411 -5.6015625 9.43359375 C-2.71839893 6.85281075 -1.54202997 3.49922185 0 0 Z " fill="#353535" transform="translate(497,30)"/>
<path d="M0 0 C0 4.62 0 9.24 0 14 C-2.76692708 14.13020833 -5.53385417 14.26041667 -8.30078125 14.390625 C-11.06361413 14.7544291 -11.06361413 14.7544291 -12.63671875 16.69921875 C-14.27073866 19.45691997 -14.42309388 21.23137973 -14.51171875 24.421875 C-14.54716797 25.44667969 -14.58261719 26.47148438 -14.61914062 27.52734375 C-14.65297852 29.12255859 -14.65297852 29.12255859 -14.6875 30.75 C-14.72166016 31.82894531 -14.75582031 32.90789062 -14.79101562 34.01953125 C-14.87339858 36.67932392 -14.93837837 39.33964537 -15 42 C-19.62 42 -24.24 42 -29 42 C-29 28.47 -29 14.94 -29 1 C-25.37 1 -21.74 1 -18 1 C-17.34 2.65 -16.68 4.3 -16 6 C-15.5153125 5.566875 -15.030625 5.13375 -14.53125 4.6875 C-9.455455 0.47068569 -6.58102505 -0.70510983 0 0 Z " fill="#353535" transform="translate(245,38)"/>
<path d="M0 0 C4.62 0 9.24 0 14 0 C14 13.53 14 27.06 14 41 C9.38 41 4.76 41 0 41 C0 27.47 0 13.94 0 0 Z " fill="#333333" transform="translate(462,39)"/>
<path d="M0 0 C3 0.5 3 0.5 4.6640625 1.5625 C6.70367064 4.52052818 6.43434675 7.53810635 6.375 11 C6.38660156 11.67675781 6.39820313 12.35351562 6.41015625 13.05078125 C6.39293906 15.9604861 6.34187409 18.00418261 4.6640625 20.4375 C1.97926374 22.1517377 0.08897929 22.01482988 -3 21.5 C-6.16947921 18.4361701 -6.23872656 15.20744252 -6.375 11 C-6.05139077 1.00856513 -6.05139077 1.00856513 0 0 Z " fill="#F7F8F8" transform="translate(136,48.5)"/>
<path d="M0 0 C0.7734375 -0.00773437 1.546875 -0.01546875 2.34375 -0.0234375 C5.00660611 0.468612 5.89376622 1.22325287 7.5 3.375 C8.14242424 8.51439394 8.14242424 8.51439394 6.2578125 11.0390625 C4.03747321 12.72652036 2.76536019 12.7776536 0 12.75 C-0.7734375 12.75773437 -1.546875 12.76546875 -2.34375 12.7734375 C-5.00660611 12.281388 -5.89376622 11.52674713 -7.5 9.375 C-8.14242424 4.23560606 -8.14242424 4.23560606 -6.2578125 1.7109375 C-4.03747321 0.02347964 -2.76536019 -0.0276536 0 0 Z " fill="#383838" transform="translate(469.5,21.625)"/>
<path d="M0 0 C1.423125 -0.061875 2.84625 -0.12375 4.3125 -0.1875 C5.51326172 -0.23970703 5.51326172 -0.23970703 6.73828125 -0.29296875 C9 0 9 0 10.76953125 1.35546875 C12 3 12 3 12.375 5.5 C11.92687984 8.48746775 11.36602774 9.1876123 9 11 C6.73828125 11.29296875 6.73828125 11.29296875 4.3125 11.1875 C2.889375 11.125625 1.46625 11.06375 0 11 C0 7.37 0 3.74 0 0 Z " fill="#F9FAFA" transform="translate(426,58)"/>
<path d="M0 0 C7.37042925 -0.36248013 7.37042925 -0.36248013 10.0625 1.1875 C11 3 11 3 10.8125 5.5625 C10 8 10 8 8 10 C5.31160615 10.26991906 2.70858064 10.08737357 0 10 C0 6.7 0 3.4 0 0 Z " fill="#F4F5F5" transform="translate(426,37)"/>
<path d="M0 0 C-0.61620855 2.79387762 -1.24249695 5.58480926 -1.875 8.375 C-2.04902344 9.1690625 -2.22304688 9.963125 -2.40234375 10.78125 C-2.66337891 11.92207031 -2.66337891 11.92207031 -2.9296875 13.0859375 C-3.08679199 13.7876709 -3.24389648 14.4894043 -3.40576172 15.21240234 C-4 17 -4 17 -6 19 C-6.99 14.05 -7.98 9.1 -9 4 C-2.25 0 -2.25 0 0 0 Z " fill="#E0E1E1" transform="translate(384,48)"/>
<path d="M0 0 C3.0625 0.3125 3.0625 0.3125 4.9375 1.625 C6.0625 3.3125 6.0625 3.3125 6.0625 6.3125 C2.1025 6.3125 -1.8575 6.3125 -5.9375 6.3125 C-4.47848361 0.47643443 -4.47848361 0.47643443 0 0 Z " fill="#F7F8F8" transform="translate(546.9375,47.6875)"/>
<path d="M0 0 C3.5625 0.1875 3.5625 0.1875 5.5625 2.1875 C5.5625 3.5075 5.5625 4.8275 5.5625 6.1875 C1.9325 6.1875 -1.6975 6.1875 -5.4375 6.1875 C-4.24632353 0.23161765 -4.24632353 0.23161765 0 0 Z " fill="#F7F8F8" transform="translate(326.4375,47.8125)"/>
<path d="M0 0 C3.96 0 7.92 0 12 0 C10 4 10 4 7.125 5 C4 5 4 5 1.625 3.125 C0 1 0 1 0 0 Z " fill="#F0F1F1" transform="translate(76,0)"/>
<path d="M0 0 C-0.66 2.64 -1.32 5.28 -2 8 C-4.31 7.34 -6.62 6.68 -9 6 C-9 5.34 -9 4.68 -9 4 C-2.25 0 -2.25 0 0 0 Z " fill="#EBECEC" transform="translate(384,48)"/>
</svg>
